<svg viewBox="0 0 24 25" fill="none" xmlns="http://www.w3.org/2000/svg">
<rect y="0.295898" width="24" height="23.7896" rx="11.8948" fill="#8F999E"/>
<path d="M13.0288 14.9278V12.7037C14.9281 12.3536 17 11.118 17 8.48201C17 6.11376 15.3165 4.58984 12.6619 4.58984C9.96403 4.58984 8.53957 6.15495 8 7.92599L9.59712 8.5026C9.94245 7.12284 10.9353 6.09317 12.5971 6.09317C14.1295 6.09317 15.1439 6.99928 15.1439 8.39964V8.68795C15.1439 10.4178 13.7194 11.4475 11.3669 11.5504V14.9278H13.0288ZM12.2086 19.4583C13.1151 19.4583 13.5252 18.9847 13.5252 18.2639V17.9962C13.5252 17.2754 13.1151 16.8018 12.2086 16.8018C11.3022 16.8018 10.8921 17.2754 10.8921 17.9962V18.2639C10.8921 18.9847 11.3022 19.4583 12.2086 19.4583Z" fill="white"/>
</svg>
