<svg width="56" height="56" viewBox="0 0 56 56" fill="none" xmlns="http://www.w3.org/2000/svg">
<rect x="0.5" y="0.5" width="55" height="55" rx="27.5" fill="#F2F9F1"/>
<g clip-path="url(#clip0_2302_38200)">
<path d="M36.3164 20.2722C34.7639 19.5458 33.1039 19.0179 31.3684 18.7173C31.1553 19.1026 30.9063 19.6209 30.7346 20.0332C28.8897 19.7558 27.0618 19.7558 25.2508 20.0332C25.0792 19.6209 24.8245 19.1026 24.6095 18.7173C22.8721 19.0179 21.2102 19.5477 19.6577 20.276C16.5263 25.008 15.6774 29.6224 16.1018 34.1713C18.1788 35.7223 20.1916 36.6645 22.1704 37.2811C22.6589 36.6086 23.0947 35.8938 23.4701 35.1405C22.7551 34.8688 22.0704 34.5336 21.4234 34.1444C21.595 34.0172 21.7629 33.8843 21.9251 33.7475C25.8715 35.5933 30.1592 35.5933 34.0584 33.7475C34.2225 33.8843 34.3904 34.0172 34.5602 34.1444C33.9113 34.5355 33.2246 34.8707 32.5097 35.1424C32.8851 35.8938 33.319 36.6106 33.8094 37.283C35.7901 36.6664 37.8048 35.7243 39.8817 34.1713C40.3797 28.898 39.031 24.3259 36.3164 20.2722ZM24.0077 31.3738C22.8231 31.3738 21.8516 30.2679 21.8516 28.9211C21.8516 27.5743 22.8023 26.4665 24.0077 26.4665C25.2131 26.4665 26.1846 27.5724 26.1639 28.9211C26.1657 30.2679 25.2131 31.3738 24.0077 31.3738ZM31.9758 31.3738C30.7912 31.3738 29.8197 30.2679 29.8197 28.9211C29.8197 27.5743 30.7704 26.4665 31.9758 26.4665C33.1812 26.4665 34.1527 27.5724 34.132 28.9211C34.132 30.2679 33.1812 31.3738 31.9758 31.3738Z" fill="#07202D"/>
</g>
<rect x="0.5" y="0.5" width="55" height="55" rx="27.5" stroke="#07202D"/>
<defs>
<clipPath id="clip0_2302_38200">
<rect width="24" height="19.0685" fill="white" transform="translate(16 18.4658)"/>
</clipPath>
</defs>
</svg>
