<svg width="56" height="56" viewBox="0 0 56 56" fill="none" xmlns="http://www.w3.org/2000/svg">
<rect x="0.5" y="0.5" width="55" height="55" rx="27.5" fill="#F2F9F1"/>
<g clip-path="url(#facebook_clip)">
<path d="M28 40.0015C34.6274 40.0015 40 34.6289 40 28.0015C40 21.374 34.6274 16.0015 28 16.0015C21.3726 16.0015 16 21.374 16 28.0015C16 34.6289 21.3726 40.0015 28 40.0015Z" fill="#07202D"/>
<path d="M32.6717 31.4713L33.2033 28.0017H29.8755V25.7506C29.8755 24.8022 30.3396 23.8757 31.8313 23.8757H33.345V20.9226C33.345 20.9226 31.9714 20.688 30.6585 20.688C27.918 20.688 26.1258 22.3485 26.1258 25.3574V28.0017H23.0781V31.4713H26.1258V39.8566C26.7367 39.9528 27.3628 40.0017 28.0006 40.0017C28.6385 40.0017 29.2646 39.9511 29.8755 39.8566V31.4713H32.6717Z" fill="#F2F9F1"/>
</g>
<rect x="0.5" y="0.5" width="55" height="55" rx="27.5" stroke="#07202D"/>
<defs>
<clipPath id="facebook_clip">
<rect width="24" height="24" fill="white" transform="translate(16 16)"/>
</clipPath>
</defs>
</svg>
