<svg width="56" height="56" viewBox="0 0 56 56" fill="none" xmlns="http://www.w3.org/2000/svg">
<rect x="0.5" y="0.5" width="55" height="55" rx="27.5" fill="#F2F9F1"/>
<path d="M28.0002 31.8402C30.1209 31.8402 31.8402 30.1209 31.8402 28.0002C31.8402 25.8794 30.1209 24.1602 28.0002 24.1602C25.8794 24.1602 24.1602 25.8794 24.1602 28.0002C24.1602 30.1209 25.8794 31.8402 28.0002 31.8402Z" fill="#07202D"/>
<path d="M33.28 16H22.72C20.9384 16.002 19.2303 16.7107 17.9705 17.9705C16.7107 19.2303 16.002 20.9384 16 22.72V33.28C16.002 35.0616 16.7107 36.7697 17.9705 38.0295C19.2303 39.2893 20.9384 39.998 22.72 40H33.28C35.0616 39.998 36.7697 39.2893 38.0295 38.0295C39.2893 36.7697 39.998 35.0616 40 33.28V22.72C39.998 20.9384 39.2893 19.2303 38.0295 17.9705C36.7697 16.7107 35.0616 16.002 33.28 16ZM28 33.76C26.8608 33.76 25.7471 33.4222 24.7999 32.7893C23.8527 32.1563 23.1144 31.2568 22.6785 30.2043C22.2425 29.1518 22.1284 27.9936 22.3507 26.8763C22.5729 25.7589 23.1215 24.7326 23.9271 23.9271C24.7326 23.1215 25.7589 22.5729 26.8763 22.3507C27.9936 22.1284 29.1518 22.2425 30.2043 22.6785C31.2568 23.1144 32.1563 23.8527 32.7893 24.7999C33.4222 25.7471 33.76 26.8608 33.76 28C33.7583 29.5271 33.1509 30.9912 32.071 32.071C30.9912 33.1509 29.5271 33.7583 28 33.76ZM34.24 23.2C33.9552 23.2 33.6768 23.1155 33.44 22.9573C33.2032 22.7991 33.0186 22.5742 32.9096 22.3111C32.8006 22.0479 32.7721 21.7584 32.8277 21.4791C32.8832 21.1997 33.0204 20.9432 33.2218 20.7418C33.4232 20.5404 33.6797 20.4032 33.9591 20.3477C34.2384 20.2921 34.5279 20.3206 34.7911 20.4296C35.0542 20.5386 35.2791 20.7232 35.4373 20.96C35.5955 21.1968 35.68 21.4752 35.68 21.76C35.68 22.1419 35.5283 22.5082 35.2582 22.7782C34.9882 23.0483 34.6219 23.2 34.24 23.2Z" fill="#07202D"/>
<rect x="0.5" y="0.5" width="55" height="55" rx="27.5" stroke="#07202D"/>
</svg>
