<svg width="48" height="48" viewBox="0 0 48 48" fill="none" xmlns="http://www.w3.org/2000/svg">
   <rect x="0.5" y="0.5" width="47" height="47" rx="23.5" fill="#F2F9F1"/>
   <path d="M17.546 20.059H12.496V35.2897H17.546V20.059Z" fill="#07202D"/>
   <path d="M17.8906 15.5023C17.8906 15.5023 17.8906 18.0073 15.0161 18.0073C12.1416 18.0073 12.1826 15.5023 12.1826 15.5023C12.1826 15.5023 12.0184 12.71 15.0161 12.71C18.0138 12.71 17.8906 15.5023 17.8906 15.5023Z" fill="#07202D"/>
   <path d="M20.3766 35.2897V20.059H25.4053V22.2459C25.4053 22.2459 26.6481 19.6843 29.9978 19.6843C33.3475 19.6843 35.8189 21.9257 35.8189 26.5264V35.2897H30.7469V26.999C30.7469 23.4455 28.3016 23.7021 28.0217 23.7021C27.7418 23.7021 25.4053 24.1424 25.4053 26.5029V35.2897H20.3766Z" fill="#07202D"/>
   <rect x="0.5" y="0.5" width="47" height="47" rx="23.5" stroke="#07202D"/>
</svg>
