<svg width="226" height="72" viewBox="0 0 226 72" fill="none" xmlns="http://www.w3.org/2000/svg">
<rect width="226" height="72" rx="16" fill="white"/>
<g clip-path="url(#clip0_1552_30868)">
<path d="M82.9883 47.1842V24.2212H88.2033V47.1842H82.9883ZM208.828 42.9197H209.999V47.1842H207.559C206.21 47.1842 205.037 46.9325 204.043 46.4298C203.048 45.9266 202.287 45.2001 201.761 44.2481C201.235 43.297 200.972 42.1653 200.972 40.8529V33.3081H197.61V32.2912L204.951 24.8445H205.878V29.4698H209.999V33.3081H205.981V40.2298C205.981 41.0826 206.226 41.7443 206.718 42.2144C207.21 42.6848 207.914 42.9197 208.828 42.9197ZM188.715 47.6761C184.647 47.6761 180.927 45.5911 180.927 41.3449H185.799C185.875 43.0861 187.237 43.7067 188.886 43.7067C189.366 43.7067 189.801 43.6415 190.19 43.5098C190.922 43.2636 191.528 42.7193 191.528 41.9354C191.528 40.5101 189.072 40.217 187.96 40.0329C184.587 39.5431 181.236 38.541 181.236 34.6204C181.236 30.6873 185.062 28.9778 188.698 28.9778C192.528 28.9778 196.125 30.8395 196.125 34.8827H191.356C191.356 33.4826 190.43 32.7831 188.578 32.7831C187.429 32.7831 186.107 33.1824 186.107 34.4889C186.107 35.2988 186.848 35.6621 187.549 35.8507C188.813 36.1894 190.165 36.3601 191.46 36.6214C194.452 37.2228 196.468 38.666 196.468 41.7059C196.468 45.9046 192.626 47.6761 188.715 47.6761H188.715ZM179.565 38.2616C179.565 38.7208 179.53 39.1906 179.462 39.6717H165.464C165.869 42.0351 167.468 43.4115 169.993 43.4115C171.596 43.4115 173.08 42.7211 173.904 41.3779H179.187C177.803 45.2614 174.285 47.6762 169.993 47.6762C164.42 47.6762 160.387 43.6053 160.387 38.327C160.387 33.0937 164.368 28.9778 169.993 28.9778C175.584 28.9778 179.565 32.9614 179.565 38.2616H179.565ZM169.993 33.0456C167.725 33.0456 166.147 34.3075 165.602 36.3917H174.556C173.902 34.3347 172.274 33.0456 169.993 33.0456H169.993ZM157.336 24.2212H162.996L153.939 47.1842H149.033L139.632 24.2212H145.362L151.434 40.4592L157.336 24.2212H157.336ZM134.883 29.0434C139.478 29.0434 141.71 32.3583 141.71 36.4573V47.1842H136.701V37.2118C136.701 34.5652 135.626 33.2427 133.476 33.2427C130.607 33.2427 129.325 35.3458 129.325 37.8678V47.1842H124.316V29.4698H127.747L128.742 31.6682C130.187 29.9153 132.59 29.0435 134.883 29.0435L134.883 29.0434ZM112.607 47.6761C106.93 47.6761 102.59 43.8252 102.59 38.327C102.59 32.8134 106.916 28.9778 112.607 28.9778C118.283 28.9778 122.591 32.8393 122.591 38.327C122.591 43.7705 118.237 47.6761 112.607 47.6761ZM112.607 43.1821C115.577 43.1821 117.513 41.1142 117.513 38.327C117.513 35.5265 115.568 33.472 112.59 33.472C109.612 33.472 107.667 35.5267 107.667 38.327C107.667 41.1394 109.622 43.1821 112.607 43.1821ZM100.285 29.3712H101.932V33.8986H99.7704C98.3521 33.8986 97.3404 34.2156 96.7344 34.8495C96.1282 35.4839 95.8249 36.5229 95.8249 37.9666V47.1842H90.8165V29.4698H94.0408L94.9333 31.6349C96.191 30.1259 97.975 29.3713 100.285 29.3713L100.285 29.3712Z" fill="#003049"/>
<path fill-rule="evenodd" clip-rule="evenodd" d="M57.2609 13.3426L17.65 33.3481C15.7753 34.2947 15.7445 36.2732 16.351 37.3708L27.3684 57.3162C28.1682 58.7642 30.0616 59.3228 31.5757 58.5583L71.1866 38.5528C73.0632 37.6051 73.091 35.6257 72.4856 34.5301L61.4682 14.5848C60.6682 13.137 58.7752 12.5779 57.2609 13.3426Z" fill="#00D2B2"/>
<path fill-rule="evenodd" clip-rule="evenodd" d="M31.5757 13.3426L71.1866 33.3481C73.0614 34.2947 73.0922 36.2732 72.4856 37.3708L61.4683 57.3162C60.6685 58.7642 58.7751 59.3228 57.261 58.5583L17.6501 38.5528C15.7735 37.6051 15.7457 35.6257 16.3511 34.5301L27.3685 14.5848C28.1684 13.137 30.0615 12.5779 31.5757 13.3426Z" fill="#003049" fill-opacity="0.74902"/>
<path fill-rule="evenodd" clip-rule="evenodd" d="M16.0128 36.2291C16.0153 36.2604 16.0188 36.2914 16.0227 36.3222C16.0188 36.2912 16.0153 36.2601 16.0128 36.2291ZM44.4183 19.8284L17.65 33.3479C16.3239 34.0176 15.9206 35.2037 16.0125 36.2291C16.0138 36.2434 16.0151 36.2576 16.0167 36.2719C16.0185 36.2887 16.0203 36.3055 16.0227 36.3222C16.1264 37.165 16.5973 38.0211 17.6498 38.5525L44.4181 52.0718L71.1866 38.5525C72.3417 37.9692 72.7964 36.9947 72.8339 36.0761C72.8352 36.0417 72.836 36.0074 72.8362 35.9734C72.8368 35.9193 72.8357 35.8652 72.8333 35.8116C72.8299 35.7342 72.8234 35.6563 72.8137 35.5784C72.71 34.7354 72.2385 33.8789 71.1864 33.3477L44.4183 19.8284V19.8284Z" fill="#003049"/>
</g>
<defs>
<clipPath id="clip0_1552_30868">
<rect width="194" height="45.901" fill="white" transform="translate(16 13)"/>
</clipPath>
</defs>
</svg>
