<svg width="345" height="86" viewBox="0 0 345 86" fill="none" xmlns="http://www.w3.org/2000/svg">
<path d="M255.295 31.111V32.4446H251.849V42.4963H250.425V32.4446H246.979V31.111H255.295H255.295ZM251.651 58.9218C250.788 58.9218 250.001 58.7241 249.289 58.3283C248.577 57.9324 248.021 57.385 247.622 56.6857C247.223 55.9862 247.024 55.2027 247.024 54.3353C247.024 53.0127 247.463 51.9175 248.342 51.0499C249.221 50.1824 250.324 49.7489 251.651 49.7489C252.525 49.7489 253.315 49.9466 254.021 50.3424C254.728 50.7383 255.283 51.2857 255.688 51.985C256.092 52.6845 256.294 53.468 256.294 54.3351C256.294 55.6471 255.852 56.7396 254.967 57.6127C254.083 58.4857 252.978 58.9218 251.651 58.9218ZM249.345 56.6692C249.955 57.2817 250.726 57.588 251.659 57.588C252.592 57.588 253.363 57.2817 253.973 56.6692C254.582 56.0565 254.887 55.2784 254.887 54.3349C254.887 53.3918 254.582 52.6137 253.973 52.0009C253.363 51.3884 252.592 51.082 251.659 51.082C250.726 51.082 249.955 51.3884 249.345 52.0009C248.736 52.6135 248.431 53.3916 248.431 54.3349C248.431 55.2782 248.736 56.0563 249.345 56.6692ZM272.275 49.7485C273.58 49.7485 274.656 50.1821 275.503 51.0495C276.35 51.9171 276.773 53.0123 276.773 54.3349C276.773 55.6469 276.349 56.7394 275.503 57.6125C274.656 58.4854 273.58 58.9216 272.275 58.9216C270.959 58.9216 269.875 58.4661 269.023 57.5555V61.8657H267.648V49.9435H268.586L268.861 51.2933C269.271 50.8053 269.77 50.4259 270.358 50.1548C270.946 49.8838 271.585 49.7483 272.275 49.7483V49.7485ZM272.178 57.588C273.106 57.588 273.871 57.279 274.476 56.661C275.079 56.0429 275.382 55.2677 275.382 54.3349C275.382 53.4025 275.079 52.6273 274.476 52.0091C273.872 51.3911 273.106 51.082 272.178 51.082C271.25 51.082 270.482 51.3937 269.872 52.0171C269.263 52.6407 268.958 53.4132 268.958 54.3349C268.958 54.9423 269.096 55.4953 269.371 55.994C269.646 56.4929 270.032 56.8832 270.528 57.165C271.024 57.4469 271.574 57.588 272.178 57.588V57.588ZM281.9 49.8947H282.677V51.2121H281.787C280.999 51.2121 280.387 51.4532 279.95 51.9358C279.513 52.4185 279.295 53.0933 279.295 53.9607V58.7264H277.92V49.9433H278.89L279.117 51.2769C279.753 50.3554 280.681 49.8945 281.9 49.8945L281.9 49.8947ZM287.367 58.9216C286.504 58.9216 285.716 58.7239 285.005 58.3281C284.293 57.9322 283.737 57.3848 283.338 56.6855C282.939 55.986 282.74 55.2025 282.74 54.3351C282.74 53.0125 283.179 51.9173 284.058 51.0497C284.937 50.1821 286.04 49.7487 287.367 49.7487C288.241 49.7487 289.031 49.9464 289.737 50.3422C290.443 50.738 290.999 51.2855 291.403 51.9848C291.808 52.6843 292.01 53.4678 292.01 54.3349C292.01 55.6469 291.568 56.7394 290.683 57.6125C289.799 58.4854 288.693 58.9216 287.367 58.9216ZM285.061 56.669C285.67 57.2815 286.442 57.5878 287.375 57.5878C288.308 57.5878 289.079 57.2815 289.688 56.669C290.298 56.0563 290.602 55.2782 290.602 54.3347C290.602 53.3916 290.298 52.6135 289.688 52.0006C289.079 51.3882 288.308 51.0818 287.375 51.0818C286.442 51.0818 285.671 51.3882 285.061 52.0006C284.452 52.6133 284.147 53.3914 284.147 54.3347C284.147 55.278 284.452 56.0561 285.061 56.669ZM296.975 57.4415H297.93V58.7264H296.797C295.859 58.7264 295.12 58.4525 294.58 57.9049C294.041 57.3574 293.771 56.6065 293.771 55.6523V51.1956H292.235V50.9516L294.936 48.089H295.146V49.9433H297.881V51.1958H295.146V55.6035C295.146 56.0049 295.217 56.3409 295.357 56.612C295.497 56.883 295.705 57.0891 295.98 57.23C296.254 57.371 296.586 57.4413 296.975 57.4413L296.975 57.4415ZM307.376 54.3676C307.376 54.487 307.366 54.6548 307.344 54.8719H299.886C299.993 55.6852 300.328 56.3384 300.889 56.8319C301.45 57.3253 302.14 57.572 302.959 57.572C303.564 57.572 304.1 57.4391 304.569 57.1735C305.039 56.9079 305.414 56.531 305.694 56.0429H307.134C306.767 56.9537 306.217 57.6615 305.484 58.1655C304.75 58.6698 303.909 58.9218 302.96 58.9218C301.698 58.9218 300.641 58.4826 299.789 57.6045C298.936 56.726 298.511 55.6335 298.511 54.3271C298.511 53.0205 298.937 51.9309 299.789 51.0578C300.641 50.1848 301.698 49.7487 302.96 49.7487C304.265 49.7487 305.327 50.1933 306.147 51.0822C306.967 51.9714 307.377 53.0668 307.377 54.3678L307.376 54.3676ZM302.959 51.0658C302.442 51.0658 301.97 51.1689 301.544 51.3748C301.118 51.5807 300.765 51.8764 300.484 52.2613C300.204 52.6462 300.015 53.0882 299.918 53.5869H305.985C305.888 53.0771 305.699 52.63 305.419 52.2451C305.139 51.8601 304.788 51.5674 304.367 51.3666C303.947 51.1662 303.477 51.0658 302.96 51.0658H302.959ZM322.16 57.4415H323.115V58.7264H321.982C321.044 58.7264 320.305 58.4525 319.766 57.9049C319.226 57.3574 318.957 56.6065 318.957 55.6523V51.1956H317.42V50.9516L320.121 48.089H320.332V49.9433H323.066V51.1958H320.332V55.6035C320.332 56.0049 320.402 56.3409 320.542 56.612C320.682 56.883 320.89 57.0891 321.165 57.23C321.44 57.371 321.771 57.4413 322.16 57.4413L322.16 57.4415ZM324.44 48.4145V46.8367H325.928V48.4145H324.44ZM324.504 58.7264V49.9433H325.879V58.7264H324.504ZM341.634 49.7483C342.659 49.7483 343.476 50.0951 344.085 50.7891C344.695 51.483 344.999 52.3778 344.999 53.4729V58.7264H343.624V53.7982C343.624 53.2019 343.535 52.6977 343.357 52.2856C343.179 51.8735 342.915 51.5589 342.564 51.3423C342.214 51.1254 341.785 51.017 341.278 51.017C340.534 51.017 339.908 51.2962 339.401 51.8546C338.894 52.4129 338.641 53.1044 338.641 53.9284V58.7266H337.266V49.9435H338.236L338.512 51.326C338.727 50.9899 338.991 50.7053 339.304 50.472C339.617 50.2389 339.973 50.0599 340.372 49.9351C340.771 49.8104 341.192 49.7483 341.634 49.7483H341.634ZM262.586 50.0083V51.1633H259.916V58.7264H258.541V51.1633H256.826V50.0083H258.541V49.2928C258.541 48.3385 258.765 47.6337 259.212 47.1784C259.66 46.7229 260.369 46.4952 261.34 46.4952H262.586V47.6012H261.599C260.973 47.6012 260.528 47.7314 260.264 47.9917C260 48.2517 259.868 48.6963 259.868 49.3253V50.0083H262.586V50.0083ZM312.827 58.9214C311.975 58.9214 311.201 58.7237 310.505 58.3279C309.809 57.932 309.265 57.3819 308.871 56.677C308.477 55.9722 308.281 55.1914 308.281 54.3347C308.281 53.0229 308.715 51.9305 309.583 51.0573C310.451 50.1844 311.533 49.7483 312.827 49.7483C313.862 49.7483 314.76 50.0355 315.521 50.6103C316.281 51.1849 316.796 51.9494 317.066 52.9036H315.707C315.448 52.3399 315.062 51.8953 314.55 51.57C314.038 51.2448 313.463 51.082 312.827 51.082C311.932 51.082 311.185 51.3937 310.586 52.0171C309.988 52.6407 309.688 53.4132 309.688 54.3349C309.688 54.9423 309.823 55.4926 310.093 55.9858C310.362 56.4793 310.737 56.8696 311.217 57.157C311.697 57.4442 312.234 57.588 312.827 57.588C313.463 57.588 314.032 57.4226 314.534 57.0918C315.035 56.7612 315.421 56.303 315.691 55.7175H317.082C316.813 56.6933 316.292 57.4714 315.521 58.0515C314.75 58.6317 313.852 58.9218 312.827 58.9218V58.9214ZM331.638 58.9214C330.774 58.9214 329.987 58.7237 329.275 58.3279C328.563 57.932 328.008 57.3846 327.609 56.6853C327.21 55.9858 327.01 55.2023 327.01 54.3349C327.01 53.0123 327.45 51.9171 328.329 51.0495C329.208 50.1819 330.311 49.7485 331.638 49.7485C332.511 49.7485 333.301 49.9462 334.008 50.342C334.714 50.7378 335.27 51.2853 335.674 51.9846C336.079 52.6841 336.281 53.4675 336.281 54.3347C336.281 55.6467 335.839 56.7392 334.954 57.6123C334.07 58.4852 332.964 58.9214 331.638 58.9214ZM329.332 56.6688C329.941 57.2813 330.713 57.5876 331.646 57.5876C332.579 57.5876 333.35 57.2813 333.959 56.6688C334.569 56.0561 334.873 55.278 334.873 54.3345C334.873 53.3914 334.569 52.6133 333.959 52.0004C333.35 51.388 332.579 51.0816 331.646 51.0816C330.713 51.0816 329.941 51.388 329.332 52.0004C328.722 52.6131 328.418 53.3912 328.418 54.3345C328.418 55.2778 328.722 56.0559 329.332 56.6688ZM260.68 33.5177C261.716 33.5177 262.536 33.851 263.14 34.5178C263.744 35.1848 264.046 36.0929 264.046 37.2422V42.4956H262.671V37.5674C262.671 36.9712 262.581 36.467 262.404 36.0549C262.226 35.6428 261.961 35.3282 261.611 35.1116C261.26 34.8947 260.832 34.7863 260.325 34.7863C259.58 34.7863 258.955 35.0655 258.448 35.6239C257.941 36.1822 257.687 36.8737 257.687 37.6977V42.4959H256.312V30.5737H257.687V34.9001C258.022 34.4664 258.448 34.1275 258.965 33.8835C259.483 33.6397 260.055 33.5177 260.68 33.5177H260.68ZM284.557 33.7778V34.9328H281.887V42.4959H280.512V34.9328H278.797V33.7778H280.512V33.0622C280.512 32.108 280.736 31.4032 281.184 30.9479C281.631 30.4924 282.34 30.2646 283.311 30.2646H284.557V31.3707H283.57C282.945 31.3707 282.5 31.5009 282.235 31.7612C281.971 32.0212 281.839 32.4658 281.839 33.0948V33.7778H284.557V33.7778ZM273.929 38.1369C273.929 38.2563 273.919 38.4241 273.897 38.6412H266.439C266.546 39.4545 266.881 40.1077 267.442 40.6012C268.002 41.0946 268.693 41.3413 269.512 41.3413C270.116 41.3413 270.653 41.2084 271.122 40.9428C271.592 40.6771 271.967 40.3002 272.247 39.8122H273.687C273.32 40.723 272.77 41.4308 272.037 41.9348C271.303 42.4391 270.462 42.6911 269.513 42.6911C268.251 42.6911 267.193 42.2519 266.342 41.3738C265.489 40.4953 265.063 39.4028 265.063 38.0964C265.063 36.7898 265.49 35.7002 266.342 34.827C267.194 33.9541 268.251 33.518 269.513 33.518C270.818 33.518 271.88 33.9625 272.7 34.8515C273.52 35.7407 273.93 36.8361 273.93 38.1371L273.929 38.1369ZM269.512 34.8351C268.995 34.8351 268.523 34.9381 268.097 35.1441C267.671 35.35 267.318 35.6457 267.037 36.0306C266.757 36.4155 266.568 36.8575 266.471 37.3562H272.538C272.441 36.8463 272.252 36.3993 271.972 36.0143C271.691 35.6294 271.341 35.3367 270.92 35.1359C270.5 34.9355 270.03 34.8351 269.513 34.8351H269.512ZM290.169 33.664H290.946V34.9814H290.056C289.269 34.9814 288.656 35.2225 288.219 35.7051C287.783 36.1878 287.564 36.8626 287.564 37.73V42.4956H286.189V33.7126H287.16L287.386 35.0462C288.023 34.1247 288.95 33.6638 290.169 33.6638L290.169 33.664ZM299.713 38.1369C299.713 38.2563 299.702 38.4241 299.681 38.6412H292.222C292.33 39.4545 292.664 40.1077 293.225 40.6012C293.786 41.0946 294.476 41.3413 295.296 41.3413C295.9 41.3413 296.437 41.2084 296.906 40.9428C297.375 40.6771 297.75 40.3002 298.03 39.8122H299.47C299.104 40.723 298.554 41.4308 297.82 41.9348C297.087 42.4391 296.245 42.6911 295.296 42.6911C294.034 42.6911 292.977 42.2519 292.125 41.3738C291.273 40.4953 290.847 39.4028 290.847 38.0964C290.847 36.7898 291.273 35.7002 292.125 34.827C292.977 33.9541 294.034 33.518 295.296 33.518C296.601 33.518 297.664 33.9625 298.484 34.8515C299.303 35.7407 299.713 36.8361 299.713 38.1371L299.713 38.1369ZM295.296 34.8351C294.778 34.8351 294.306 34.9381 293.88 35.1441C293.454 35.35 293.101 35.6457 292.821 36.0306C292.54 36.4155 292.351 36.8575 292.254 37.3562H298.322C298.224 36.8463 298.036 36.3993 297.755 36.0143C297.475 35.6294 297.124 35.3367 296.704 35.1359C296.283 34.9355 295.814 34.8351 295.296 34.8351H295.296ZM309.968 38.1369C309.968 38.2563 309.958 38.4241 309.936 38.6412H302.477C302.585 39.4545 302.92 40.1077 303.48 40.6012C304.041 41.0946 304.732 41.3413 305.551 41.3413C306.155 41.3413 306.692 41.2084 307.161 40.9428C307.631 40.6771 308.005 40.3002 308.286 39.8122H309.726C309.359 40.723 308.809 41.4308 308.075 41.9348C307.342 42.4391 306.501 42.6911 305.552 42.6911C304.29 42.6911 303.232 42.2519 302.38 41.3738C301.528 40.4953 301.102 39.4028 301.102 38.0964C301.102 36.7898 301.529 35.7002 302.38 34.827C303.233 33.9541 304.29 33.518 305.552 33.518C306.857 33.518 307.919 33.9625 308.739 34.8515C309.559 35.7407 309.968 36.8361 309.968 38.1371L309.968 38.1369ZM305.551 34.8351C305.034 34.8351 304.562 34.9381 304.136 35.1441C303.71 35.35 303.356 35.6457 303.076 36.0306C302.796 36.4155 302.607 36.8575 302.51 37.3562H308.577C308.48 36.8463 308.291 36.3993 308.011 36.0143C307.73 35.6294 307.38 35.3367 306.959 35.1359C306.539 34.9355 306.069 34.8351 305.552 34.8351H305.551ZM318.93 30.5737H320.305V42.4959H319.253L319.059 41.2433C318.196 42.2084 317.08 42.6909 315.71 42.6909C314.394 42.6909 313.313 42.2545 312.466 41.3818C311.619 40.5087 311.196 39.4162 311.196 38.1042C311.196 36.7815 311.619 35.6864 312.466 34.8188C313.313 33.9512 314.394 33.5177 315.71 33.5177C317.004 33.5177 318.077 33.9514 318.93 34.8188V30.5737V30.5737ZM313.51 40.4303C314.113 41.0483 314.877 41.3573 315.799 41.3573C316.721 41.3573 317.49 41.0456 318.105 40.422C318.719 39.7987 319.027 39.0261 319.027 38.1042C319.027 37.1718 318.722 36.3966 318.113 35.7784C317.503 35.1603 316.735 34.8513 315.807 34.8513C315.354 34.8513 314.928 34.9355 314.529 35.1034C314.13 35.2716 313.79 35.4965 313.51 35.7784C313.229 36.0602 313.008 36.4044 312.847 36.8112C312.685 37.2177 312.604 37.6489 312.604 38.104C312.604 39.0366 312.906 39.8118 313.51 40.4301L313.51 40.4303ZM325.917 42.6911C325.054 42.6911 324.267 42.4934 323.555 42.0975C322.843 41.7017 322.288 41.1543 321.889 40.455C321.49 39.7555 321.29 38.972 321.29 38.1046C321.29 36.782 321.73 35.6868 322.609 34.8192C323.488 33.9516 324.59 33.5182 325.917 33.5182C326.791 33.5182 327.581 33.7159 328.287 34.1117C328.994 34.5075 329.549 35.055 329.954 35.7543C330.358 36.4538 330.56 37.2372 330.56 38.1044C330.56 39.4164 330.118 40.5089 329.234 41.382C328.349 42.2549 327.244 42.6911 325.917 42.6911V42.6911ZM323.612 40.4385C324.221 41.051 324.992 41.3573 325.925 41.3573C326.858 41.3573 327.629 41.051 328.239 40.4385C328.848 39.8258 329.153 39.0477 329.153 38.1042C329.153 37.1611 328.848 36.383 328.239 35.7701C327.629 35.1577 326.858 34.8513 325.925 34.8513C324.992 34.8513 324.221 35.1577 323.612 35.7701C323.002 36.3828 322.697 37.1609 322.697 38.1042C322.697 39.0475 323.002 39.8256 323.612 40.4385ZM341.35 33.5177C341.965 33.5177 342.504 33.6613 342.968 33.9488C343.432 34.236 343.79 34.6345 344.044 35.1443C344.297 35.6539 344.424 36.2341 344.424 36.8846V42.4959H343.049V37.3072C343.049 36.7867 342.97 36.3369 342.814 35.9574C342.658 35.5778 342.431 35.2879 342.135 35.0871C341.838 34.8865 341.485 34.7863 341.075 34.7863C340.439 34.7863 339.891 35.0599 339.433 35.6076C338.974 36.1551 338.745 36.8303 338.745 37.6327V42.4959H337.403V37.3072C337.403 36.5157 337.227 35.8977 336.877 35.4531C336.526 35.0085 336.038 34.7863 335.412 34.7863C335.1 34.7863 334.8 34.8596 334.514 35.0058C334.229 35.1521 333.98 35.35 333.77 35.5994C333.56 35.8487 333.393 36.1495 333.268 36.5021C333.144 36.8546 333.082 37.2313 333.082 37.6327V42.4959H331.707V33.7128H332.694L332.92 34.9163C333.082 34.6997 333.268 34.5045 333.479 34.331C333.689 34.1574 333.913 34.0111 334.15 33.8918C334.387 33.7724 334.641 33.6805 334.91 33.6153C335.18 33.5503 335.45 33.5177 335.719 33.5177C336.334 33.5177 336.874 33.6669 337.337 33.965C337.801 34.2631 338.152 34.6725 338.389 35.1931C338.605 34.8462 338.869 34.5479 339.182 34.2985C339.494 34.0492 339.837 33.8566 340.209 33.721C340.581 33.5854 340.961 33.518 341.35 33.518L341.35 33.5177Z" fill="#0F304A"/>
<path d="M238.329 24.8511H237.344V68.3261H238.329V24.8511Z" fill="#003049"/>
<path d="M77.0645 58.8345V31.1013H83.055V58.8345H77.0645ZM221.622 53.6841H222.967V58.8345H220.164C218.614 58.8345 217.267 58.5306 216.124 57.9235C214.981 57.3157 214.108 56.4383 213.503 55.2886C212.899 54.1398 212.597 52.7731 212.597 51.1879V42.0758H208.735V40.8476L217.168 31.8539H218.232V37.4402H222.967V42.0758H218.351V50.4355C218.351 51.4654 218.633 52.2645 219.198 52.8321C219.763 53.4002 220.571 53.6841 221.622 53.6841H221.622ZM198.517 59.4286C193.843 59.4286 189.571 56.9104 189.571 51.7821H195.167C195.254 53.8851 196.819 54.6346 198.714 54.6346C199.265 54.6346 199.765 54.5558 200.211 54.3968C201.052 54.0995 201.748 53.4421 201.748 52.4953C201.748 50.7739 198.927 50.4199 197.649 50.1975C193.774 49.606 189.925 48.3956 189.925 43.6606C189.925 38.9104 194.321 36.8458 198.497 36.8458C202.898 36.8458 207.029 39.0943 207.029 43.9773H201.551C201.551 42.2865 200.487 41.4416 198.359 41.4416C197.039 41.4416 195.521 41.9238 195.521 43.5016C195.521 44.4797 196.372 44.9187 197.177 45.1463C198.63 45.5555 200.182 45.7614 201.669 46.077C205.107 46.8032 207.423 48.5464 207.423 52.2178C207.423 57.2886 203.009 59.4282 198.517 59.4282L198.517 59.4286ZM188.005 48.0582C188.005 48.6127 187.966 49.1803 187.887 49.7611H171.807C172.272 52.6155 174.11 54.2776 177.01 54.2776C178.852 54.2776 180.556 53.4438 181.503 51.8218H187.572C185.981 56.5119 181.941 59.4284 177.01 59.4284C170.608 59.4284 165.975 54.512 165.975 48.137C165.975 41.8168 170.548 36.8456 177.01 36.8456C183.432 36.8456 188.005 41.6568 188.005 48.058L188.005 48.0582ZM177.01 41.7586C174.405 41.7586 172.591 43.2827 171.966 45.7999H182.252C181.501 43.3154 179.631 41.7586 177.01 41.7586V41.7586ZM162.47 31.1011H168.972L158.568 58.8343H152.933L142.134 31.1011H148.716L155.691 50.7122L162.47 31.1011H162.47ZM136.678 36.925C141.956 36.925 144.52 40.9287 144.52 45.8791V58.8343H138.766V46.7901C138.766 43.5938 137.531 41.9966 135.062 41.9966C131.766 41.9966 130.293 44.5364 130.293 47.5826V58.8343H124.539V37.44H128.48L129.623 40.095C131.283 37.978 134.044 36.925 136.678 36.925H136.678ZM111.089 59.4286C104.567 59.4286 99.5815 54.7778 99.5815 48.1372C99.5815 41.4782 104.551 36.8458 111.089 36.8458C117.608 36.8458 122.557 41.5097 122.557 48.1372C122.557 54.7117 117.556 59.4286 111.089 59.4286ZM111.089 54.0011C114.501 54.0011 116.725 51.5035 116.725 48.1372C116.725 44.7549 114.491 42.2736 111.069 42.2736C107.648 42.2736 105.414 44.7551 105.414 48.1372C105.414 51.5339 107.66 54.0011 111.089 54.0011ZM96.934 37.3211H98.826V42.7889H96.3427C94.7135 42.7889 93.5513 43.1718 92.8551 43.9376C92.1589 44.7035 91.8104 45.9583 91.8104 47.7021V58.8345H86.057V37.4402H89.761L90.7863 40.0551C92.2309 38.2325 94.2803 37.3213 96.9342 37.3213L96.934 37.3211Z" fill="#003049"/>
<path fill-rule="evenodd" clip-rule="evenodd" d="M47.467 17.6361L1.8983 41.8325C-0.258509 42.9776 -0.293914 45.3705 0.40374 46.6981L13.0784 70.8219C13.9985 72.5733 16.1766 73.249 17.9185 72.3244L63.4875 48.1278C65.6463 46.9814 65.6784 44.5875 64.9818 43.2622L52.3074 19.1384C51.3871 17.3874 49.2094 16.7111 47.467 17.6361V17.6361Z" fill="#00D2B2"/>
<path fill-rule="evenodd" clip-rule="evenodd" d="M17.9186 17.6361L63.4875 41.8325C65.6441 42.9776 65.6795 45.3705 64.9819 46.6981L52.3072 70.8219C51.3873 72.5733 49.209 73.249 47.467 72.3244L1.89812 48.1278C-0.260744 46.9814 -0.292669 44.5875 0.403757 43.2622L13.0784 19.1384C13.9985 17.3874 16.1764 16.7111 17.9186 17.6361V17.6361Z" fill="#003049" fill-opacity="0.74902"/>
<path fill-rule="evenodd" clip-rule="evenodd" d="M0.0147235 45.3179C0.0177933 45.3559 0.0216816 45.3934 0.026184 45.4306C0.0216816 45.3932 0.0177933 45.3555 0.0147235 45.3179ZM32.6929 25.4814L1.89833 41.8333C0.372657 42.6433 -0.0912854 44.0779 0.0143142 45.3179C0.0159514 45.3352 0.017384 45.3524 0.0192258 45.3697C0.0212723 45.3901 0.0235235 45.4105 0.026184 45.4306C0.145495 46.45 0.687205 47.4853 1.89792 48.1282L32.6925 64.4799L63.4875 48.1282C64.8163 47.4228 65.3394 46.2441 65.3825 45.1329C65.384 45.0914 65.385 45.05 65.3852 45.0087C65.3858 44.9432 65.3846 44.8778 65.3819 44.8132C65.378 44.7194 65.3705 44.6254 65.3592 44.5311C65.2399 43.5115 64.6976 42.4756 63.4871 41.8329L32.6929 25.4814V25.4814Z" fill="#003049"/>
</svg>
