<svg width="116" height="29" viewBox="0 0 116 29" fill="none" xmlns="http://www.w3.org/2000/svg">
<path fill-rule="evenodd" clip-rule="evenodd" d="M24.6961 0.213027L0.989474 12.594C-0.132571 13.1798 -0.150956 14.4043 0.212044 15.0837L6.80582 27.4274C7.28446 28.3235 8.41768 28.6693 9.32384 28.1961L33.0305 15.8152C34.1536 15.2286 34.1703 14.0036 33.808 13.3255L27.2142 0.98173C26.7354 0.0857366 25.6024 -0.260242 24.6962 0.213027H24.6961Z" fill="white" fill-opacity="0.65098"/>
<path fill-rule="evenodd" clip-rule="evenodd" d="M9.32375 0.213027L33.0304 12.594C34.1525 13.1798 34.1709 14.4043 33.8079 15.0837L27.2141 27.4274C26.7355 28.3235 25.6023 28.6693 24.6961 28.1961L0.989421 15.8152C-0.133683 15.2286 -0.150304 14.0036 0.21199 13.3255L6.80576 0.98173C7.28456 0.0857366 8.41747 -0.260242 9.32375 0.213027Z" fill="white" fill-opacity="0.85098"/>
<path fill-rule="evenodd" clip-rule="evenodd" d="M33.0262 15.8152L17.0078 24.1809L24.696 28.1961C25.6022 28.6694 26.7353 28.3233 27.214 27.4274L33.8078 15.0838C33.9379 14.8401 34.0192 14.5257 34.0178 14.1958C34.0164 14.8264 33.697 15.4649 33.0263 15.8152H33.0262Z" fill="white" fill-opacity="0.65"/>
<path fill-rule="evenodd" clip-rule="evenodd" d="M0.991641 12.5929L17.0101 4.22722L9.32193 0.212034C8.41569 -0.261234 7.28251 0.0848215 6.80387 0.980776L0.210094 13.3244C0.0799476 13.5681 -0.00135493 13.8824 1.70965e-05 14.2123C0.00146753 13.5818 0.320837 12.9432 0.991562 12.5929H0.991641Z" fill="white" fill-opacity="0.65"/>
<path fill-rule="evenodd" clip-rule="evenodd" d="M40.4258 7.04608V21.463H43.579V7.04608H40.4258ZM51.9358 10.2796H50.9401C49.5434 10.2796 48.4646 10.7533 47.7041 11.7007L47.1646 10.3414H45.2148V21.463H48.2434V15.6757C48.2434 14.7694 48.4266 14.1172 48.7932 13.719C49.1597 13.3208 49.7715 13.1218 50.629 13.1218H51.9358V10.2796ZM58.3002 21.7719C57.1523 21.7719 56.1152 21.5179 55.1886 21.0098C54.262 20.5019 53.5395 19.7981 53.0208 18.8988C52.5023 17.9995 52.2429 17.0005 52.2429 15.9022C52.2429 14.2133 52.817 12.8128 53.9648 11.7007C55.1127 10.5885 56.5577 10.0324 58.3002 10.0324C60.0289 10.0324 61.4671 10.5885 62.6149 11.7007C63.7628 12.8128 64.3366 14.2133 64.3366 15.9022C64.3366 17.5772 63.7594 18.9742 62.6047 20.0934C61.4497 21.2124 60.0149 21.7719 58.3002 21.7719ZM58.3002 18.9504C59.1714 18.9504 59.8836 18.6653 60.4368 18.0956C60.9901 17.5256 61.2664 16.7947 61.2664 15.9022C61.2664 15.0096 60.9901 14.2785 60.4368 13.7087C59.8836 13.1388 59.1679 12.8539 58.2899 12.8539C57.4117 12.8539 56.6961 13.1388 56.1429 13.7087C55.5896 14.2785 55.3131 15.0096 55.3131 15.9022C55.3131 16.3415 55.3856 16.7533 55.5309 17.1379C55.6762 17.5222 55.88 17.845 56.1429 18.1058C56.4056 18.3668 56.7201 18.5726 57.0867 18.7237C57.4532 18.8747 57.8577 18.9504 58.3002 18.9504ZM74.6532 11.3402C73.9133 10.4959 72.9073 10.0736 71.635 10.0736L71.6349 10.0736C71.2478 10.0736 70.8778 10.1113 70.525 10.187C70.1725 10.2623 69.8371 10.3723 69.5191 10.5163C69.2011 10.6605 68.9071 10.8323 68.6376 11.0313C68.3678 11.2305 68.1292 11.4604 67.9219 11.7214L67.3202 10.3414H65.246V21.463H68.2745V15.6139C68.2745 15.0233 68.3747 14.5086 68.5753 14.0693C68.7757 13.6297 69.0663 13.2933 69.4466 13.06C69.8268 12.8265 70.2728 12.71 70.7846 12.71C72.0846 12.71 72.7343 13.5404 72.7343 15.2019V21.463H75.7631V14.7283C75.7631 13.314 75.3931 12.1848 74.6532 11.3402ZM84.8667 7.04608H88.2894L82.8129 21.463H79.8466L74.1627 7.04608H77.6271L81.2987 17.2408L84.8667 7.04608ZM97.8487 16.7465C97.8903 16.4444 97.9109 16.1493 97.9109 15.8611L97.911 15.861C97.911 14.8036 97.6726 13.8289 97.1953 12.9364C96.7183 12.0439 96.0337 11.3368 95.1417 10.815C94.2496 10.2932 93.2436 10.0324 92.1234 10.0324C91.4597 10.0324 90.8306 10.1285 90.2357 10.3207C89.641 10.5129 89.1087 10.7841 88.6385 11.1341C88.1684 11.4844 87.757 11.8997 87.4042 12.3804C87.0516 12.8608 86.7818 13.4032 86.5951 14.0075C86.4085 14.6115 86.3151 15.2432 86.3151 15.9022C86.3151 17.5636 86.8684 18.9572 87.9748 20.083C89.081 21.209 90.464 21.7719 92.1234 21.7719C93.4235 21.7719 94.5713 21.4148 95.567 20.7008C96.5627 19.9869 97.2681 19.0258 97.6829 17.8175H94.4883C94.2533 18.2157 93.9282 18.5281 93.5134 18.7546C93.0983 18.9812 92.6353 19.0944 92.1234 19.0944C91.3767 19.0944 90.7647 18.892 90.2876 18.487C89.8106 18.082 89.5097 17.5018 89.3853 16.7465H97.8487ZM90.4121 13.1425C90.8754 12.7717 91.4457 12.5864 92.1234 12.5864C92.5659 12.5864 92.9704 12.6686 93.3369 12.8336C93.7035 12.9982 94.0181 13.2352 94.2807 13.5441C94.5436 13.853 94.744 14.2339 94.8824 14.6871H89.4683C89.6342 14.0279 89.9488 13.5132 90.4121 13.1425ZM103.159 21.7719C102.233 21.7719 101.413 21.6073 100.701 21.2777C99.9891 20.9481 99.4358 20.4813 99.0416 19.8773C98.6476 19.273 98.4504 18.5797 98.4504 17.797H101.396C101.41 18.1265 101.496 18.4046 101.655 18.6311C101.815 18.8578 102.032 19.0225 102.309 19.1254C102.585 19.2285 102.904 19.2798 103.263 19.2798C103.553 19.2798 103.816 19.2387 104.051 19.1562C104.286 19.074 104.48 18.947 104.632 18.7753C104.784 18.6035 104.86 18.4012 104.86 18.1676C104.86 17.8244 104.681 17.5705 104.321 17.4058C103.962 17.2408 103.422 17.0968 102.703 16.9732C102.247 16.9044 101.87 16.8358 101.573 16.7672C101.275 16.6986 100.923 16.5784 100.515 16.4067C100.107 16.2352 99.7815 16.0394 99.5394 15.8197C99.2976 15.6001 99.0867 15.2979 98.9068 14.9136C98.727 14.529 98.6371 14.0829 98.6371 13.5749C98.6371 12.5314 99.0521 11.68 99.8817 11.021C100.712 10.3618 101.801 10.0324 103.149 10.0324C104.497 10.0324 105.583 10.3722 106.406 11.0519C107.229 11.7316 107.64 12.6274 107.64 13.7396H104.757C104.757 12.8607 104.196 12.4214 103.076 12.4214C102.606 12.4214 102.24 12.5175 101.977 12.7099C101.714 12.9021 101.583 13.1629 101.583 13.4925C101.583 13.6297 101.621 13.7567 101.697 13.8735C101.773 13.9902 101.863 14.0829 101.966 14.1515C102.07 14.2201 102.233 14.2855 102.454 14.3473C102.675 14.4091 102.862 14.4536 103.014 14.4811L103.699 14.6046C103.962 14.6596 104.148 14.6973 104.259 14.718C104.369 14.7385 104.556 14.7762 104.819 14.8311C105.082 14.8861 105.279 14.9377 105.41 14.9856C105.541 15.0338 105.721 15.0989 105.949 15.1814C106.178 15.2636 106.35 15.3495 106.468 15.4388C106.586 15.528 106.731 15.6344 106.904 15.7579C107.077 15.8815 107.211 16.0189 107.308 16.17C107.405 16.3208 107.502 16.4857 107.598 16.6643C107.695 16.8426 107.761 17.0486 107.796 17.2821C107.83 17.5154 107.847 17.7626 107.847 18.0236C107.847 19.1632 107.419 20.0727 106.561 20.7524C105.704 21.4321 104.57 21.7719 103.159 21.7719L103.159 21.7719ZM116 18.7854H114.631V18.7854C114.078 18.7854 113.652 18.6379 113.355 18.3427C113.058 18.0474 112.909 17.6321 112.909 17.0967V12.751H115.938V10.3413H112.847V7.43737H112.287L107.848 12.1125V12.751H109.881V17.4879C109.881 18.3118 110.04 19.0223 110.358 19.6195C110.676 20.217 111.135 20.6734 111.737 20.9893C112.339 21.3051 113.047 21.4629 113.863 21.4629H116V18.7854Z" fill="white"/>
</svg>
