<svg width="24" height="24" viewBox="0 0 24 24" fill="none" xmlns="http://www.w3.org/2000/svg">
<mask id="mask0_2615_15393" style="mask-type:alpha" maskUnits="userSpaceOnUse" x="0" y="0" width="12" height="24">
<rect width="12" height="24" fill="#D9D9D9"/>
</mask>
<g mask="url(#mask0_2615_15393)">
<path d="M11.0477 0.971631C11.3446 0.0451978 12.6554 0.0452018 12.9523 0.971635L15.0823 7.61826C15.215 8.03224 15.5999 8.31308 16.0346 8.31308H22.9564C23.9218 8.31308 24.3268 9.54565 23.5495 10.1182L17.926 14.2608C17.5803 14.5154 17.4358 14.9623 17.5668 15.3711L19.7092 22.0564C20.0052 22.9801 18.9448 23.742 18.1638 23.1667L12.5931 19.0631C12.2404 18.8032 11.7596 18.8032 11.4069 19.0631L5.83623 23.1667C5.05524 23.742 3.99481 22.9801 4.29084 22.0564L6.43322 15.3711C6.56424 14.9623 6.41968 14.5154 6.07402 14.2608L0.450464 10.1182C-0.326788 9.54565 0.0781863 8.31308 1.04356 8.31308H7.96542C8.40013 8.31308 8.78505 8.03223 8.91771 7.61826L11.0477 0.971631Z" fill="#00D2B2"/>
</g>
</svg>
