<svg width="19" height="18" viewBox="0 0 19 18" fill="none" xmlns="http://www.w3.org/2000/svg">
<path d="M16.7315 17.7528L10.6128 11.6341C10.1272 12.0226 9.56878 12.3302 8.9375 12.5568C8.30621 12.7834 7.63446 12.8967 6.92224 12.8967C5.15787 12.8967 3.6648 12.2855 2.44302 11.0631C1.22124 9.84065 0.610022 8.34757 0.609375 6.58386C0.609375 4.81949 1.22059 3.32642 2.44302 2.10464C3.66545 0.882858 5.15852 0.271644 6.92224 0.270996C8.6866 0.270996 10.1797 0.882211 11.4015 2.10464C12.6232 3.32707 13.2345 4.82014 13.2351 6.58386C13.2351 7.29608 13.1218 7.96783 12.8952 8.59912C12.6686 9.2304 12.361 9.78885 11.9725 10.2745L18.0911 16.3931L16.7315 17.7528ZM6.92224 10.9543C8.13625 10.9543 9.16832 10.5292 10.0185 9.6791C10.8686 8.82897 11.2933 7.79722 11.2927 6.58386C11.2927 5.36985 10.8676 4.33777 10.0175 3.48764C9.16735 2.63751 8.1356 2.21277 6.92224 2.21342C5.70823 2.21342 4.67615 2.63848 3.82602 3.48861C2.97589 4.33875 2.55115 5.37049 2.55179 6.58386C2.55179 7.79787 2.97686 8.82994 3.82699 9.68007C4.67712 10.5302 5.70887 10.9549 6.92224 10.9543Z" fill="#003049"/>
</svg>
