<svg width="20" height="16" viewBox="0 0 20 16" fill="none" xmlns="http://www.w3.org/2000/svg">
<path d="M19.1077 2.34337C18.4318 2.64577 17.7202 2.85034 16.9553 2.93928C17.738 2.47678 18.325 1.73856 18.6007 0.866925C17.8892 1.29385 17.0798 1.60515 16.2438 1.77414C15.5411 1.0626 14.5717 0.600098 13.4955 0.600098C11.432 0.600098 9.76878 2.26332 9.76878 4.32678C9.76878 4.62029 9.78656 4.92269 9.84882 5.18952C6.75363 5.02053 4.01421 3.61524 2.15531 1.35611C1.84402 1.90755 1.64834 2.47678 1.64834 3.17053C1.64834 4.4513 2.30652 5.58976 3.32046 6.26572C2.70676 6.24793 2.13753 6.07894 1.63056 5.80322C1.63056 5.82991 1.63056 5.82991 1.63056 5.84769C1.63056 7.66212 2.92022 9.17414 4.62791 9.51212C4.30772 9.60106 3.96974 9.64553 3.63176 9.64553C3.40051 9.64553 3.16926 9.61885 2.93801 9.57438C3.40051 11.0508 4.7969 12.1537 6.41565 12.1715C5.15267 13.1854 3.52503 13.9414 1.78176 13.9414C1.47935 13.9414 1.18584 13.9237 0.892334 13.8792C2.53777 14.9376 4.52118 15.4001 6.62911 15.4001C13.4955 15.4001 17.2488 9.70779 17.2488 4.77149C17.2488 4.6025 17.2488 4.4513 17.2488 4.28231C17.9693 3.75755 18.6007 3.10827 19.1077 2.34337Z" fill="#07202D"/>
</svg>
