<svg width="20" height="16" viewBox="0 0 20 16" fill="none" xmlns="http://www.w3.org/2000/svg">
<path fill-rule="evenodd" clip-rule="evenodd" d="M6.65614 7.99994L0.328808 1.07905C0.276454 1.24512 0.24707 1.4254 0.24707 1.61371V14.3856C0.24707 14.5739 0.275919 14.7548 0.328273 14.9208L6.65614 7.99994ZM18.8033 15.8278L12.4947 8.92848L11.8717 9.60946C11.3338 10.1978 10.666 10.4923 10.0004 10.4923C9.33366 10.4923 8.66642 10.1978 8.12845 9.60946L7.50555 8.92848L1.19692 15.8284L1.16914 15.8593H1.43999H18.5602H18.8316L18.8033 15.8278ZM19.6719 1.07844L13.3441 7.99994L19.6714 14.9202C19.7237 14.7541 19.7531 14.5732 19.7531 14.3856V1.61371C19.7531 1.4254 19.7243 1.24451 19.6719 1.07844ZM1.19692 0.171494L7.50555 7.07077L7.92972 7.53567L8.35443 7.99994L8.87423 8.56855C9.19583 8.92046 9.59756 9.09703 10.0004 9.09703C10.4021 9.09703 10.8049 8.91923 11.126 8.56855L11.6458 7.99994L12.0705 7.53567L12.4947 7.07077L18.8033 0.170876L18.8316 0.140625H18.5602H1.43999H1.16914L1.19692 0.171494Z" fill="#003049"/>
</svg>
