<svg width="56" height="56" viewBox="0 0 56 56" fill="none" xmlns="http://www.w3.org/2000/svg">
<rect x="0.5" y="0.5" width="55" height="55" rx="27.5" fill="#F2F9F1"/>
<path d="M40 20.5469C39.1094 20.9453 38.1719 21.2148 37.1641 21.332C38.1953 20.7227 38.9688 19.75 39.332 18.6016C38.3945 19.1641 37.3281 19.5742 36.2266 19.7969C35.3008 18.8594 34.0234 18.25 32.6055 18.25C29.8867 18.25 27.6953 20.4414 27.6953 23.1602C27.6953 23.5469 27.7188 23.9453 27.8008 24.2969C23.7227 24.0742 20.1133 22.2227 17.6641 19.2461C17.2539 19.9727 16.9961 20.7227 16.9961 21.6367C16.9961 23.3242 17.8633 24.8242 19.1992 25.7148C18.3906 25.6914 17.6406 25.4688 16.9727 25.1055C16.9727 25.1406 16.9727 25.1406 16.9727 25.1641C16.9727 27.5547 18.6719 29.5469 20.9219 29.9922C20.5 30.1094 20.0547 30.168 19.6094 30.168C19.3047 30.168 19 30.1328 18.6953 30.0742C19.3047 32.0195 21.1445 33.4727 23.2773 33.4961C21.6133 34.832 19.4688 35.8281 17.1719 35.8281C16.7734 35.8281 16.3867 35.8047 16 35.7461C18.168 37.1406 20.7812 37.75 23.5586 37.75C32.6055 37.75 37.5508 30.25 37.5508 23.7461C37.5508 23.5234 37.5508 23.3242 37.5508 23.1016C38.5 22.4102 39.332 21.5547 40 20.5469Z" fill="#07202D"/>
<rect x="0.5" y="0.5" width="55" height="55" rx="27.5" stroke="#07202D"/>
</svg>
