<svg width="15" height="9" viewBox="0 0 15 9" fill="none" xmlns="http://www.w3.org/2000/svg">
<path fill-rule="evenodd" clip-rule="evenodd" d="M14.707 6.83251C15.0976 7.22303 15.0976 7.85619 14.707 8.24672C14.3165 8.63724 13.6834 8.63724 13.2928 8.24672L7.49997 2.45386L1.70711 8.24672C1.31658 8.63724 0.683417 8.63724 0.292893 8.24672C-0.0976311 7.85619 -0.0976311 7.22303 0.292893 6.8325L6.55882 0.566573C6.60639 0.467637 6.67119 0.374908 6.75321 0.292885C6.95856 0.0875416 7.23098 -0.00983047 7.49995 0.000771523C7.76893 -0.00984097 8.04137 0.0875292 8.24673 0.292883C8.32875 0.374909 8.39355 0.46764 8.44112 0.566579L14.707 6.83251Z" fill="#F2F9F1"/>
</svg>
